<?xml version="1.0" encoding="UTF-8" standalone="no"?>
<!DOCTYPE svg PUBLIC "-//W3C//DTD SVG 1.1//EN"
 "http://www.w3.org/Graphics/SVG/1.1/DTD/svg11.dtd">
<!-- Generated by graphviz version 2.40.1 (20161225.0304)
 -->
<!-- Title: G Pages: 1 -->
<svg width="638pt" height="231pt"
 viewBox="0.00 0.00 637.70 231.00" xmlns="http://www.w3.org/2000/svg" xmlns:xlink="http://www.w3.org/1999/xlink">
<g id="graph0" class="graph" transform="scale(1 1) rotate(0) translate(4 227)">
<title>G</title>
<polygon fill="#ffffff" stroke="transparent" points="-4,4 -4,-227 633.7035,-227 633.7035,4 -4,4"/>
<!-- A0 -->
<g id="node1" class="node">
<title>A0</title>
<polygon fill="#f5f5dc" stroke="#000000" points="67.4122,-78 4.0508,-78 4.0508,-42 73.4122,-42 73.4122,-72 67.4122,-78"/>
<polyline fill="none" stroke="#000000" points="67.4122,-78 67.4122,-72 "/>
<polyline fill="none" stroke="#000000" points="73.4122,-72 67.4122,-72 "/>
<text text-anchor="middle" x="38.7315" y="-57" font-family="Helvetica,sans-Serif" font-size="10.00" fill="#000000">figure 3.2</text>
</g>
<!-- A1 -->
<g id="node2" class="node">
<title>A1</title>
<g transform="translate(38.7315,-129)" style="fill:none;stroke:black;stroke-width:1px"><circle cx="0" cy="-20" r="7.5" />
                <line x1="0" y1="-12.5" x2="0" y2="5" />
                <line x1="-15" y1="-5" x2="15" y2="-5" />
                <line x1="0" y1="5" x2="-15" y2="17" />
                <line x1="0" y1="5" x2="15" y2="17" /></g>
<text text-anchor="middle" x="38.7315" y="-104" font-family="Helvetica,sans-Serif" font-size="10.00" fill="#000000">老师</text>
</g>
<!-- A2 -->
<g id="node3" class="node">
<title>A2</title>
<ellipse fill="none" stroke="#000000" cx="181.0572" cy="-178" rx="47.2661" ry="18"/>
<text text-anchor="middle" x="181.0572" y="-175" font-family="Helvetica,sans-Serif" font-size="10.00" fill="#000000">上传课件</text>
</g>
<!-- A1&#45;&gt;A2 -->
<g id="edge1" class="edge">
<title>A1&#45;&gt;A2</title>
<path fill="none" stroke="#000000" d="M77.6226,-144.5697C98.528,-151.3264 124.1475,-159.6067 144.6589,-166.236"/>
</g>
<!-- A3 -->
<g id="node4" class="node">
<title>A3</title>
<ellipse fill="none" stroke="#000000" cx="397.9698" cy="-120" rx="50.6716" ry="18"/>
<text text-anchor="middle" x="397.9698" y="-117" font-family="Helvetica,sans-Serif" font-size="10.00" fill="#000000">发布教学心得</text>
</g>
<!-- A1&#45;&gt;A3 -->
<g id="edge2" class="edge">
<title>A1&#45;&gt;A3</title>
<path fill="none" stroke="#000000" d="M77.5176,-130.7044C142.9224,-128.5196 275.091,-124.1046 347.5814,-121.6832"/>
</g>
<!-- A4 -->
<g id="node5" class="node">
<title>A4</title>
<ellipse fill="none" stroke="#000000" cx="181.0572" cy="-79" rx="52.6886" ry="18"/>
<text text-anchor="middle" x="181.0572" y="-76" font-family="Helvetica,sans-Serif" font-size="10.00" fill="#000000">查看教学心得</text>
</g>
<!-- A1&#45;&gt;A4 -->
<g id="edge3" class="edge">
<title>A1&#45;&gt;A4</title>
<path fill="none" stroke="#000000" d="M77.6226,-117.5175C98.6926,-109.6714 124.5513,-100.042 145.1424,-92.3741"/>
</g>
<!-- A5 -->
<g id="node6" class="node">
<title>A5</title>
<ellipse fill="none" stroke="#000000" cx="596.8253" cy="-120" rx="32.7567" ry="18"/>
<text text-anchor="middle" x="596.8253" y="-117" font-family="Helvetica,sans-Serif" font-size="10.00" fill="#000000">登录</text>
</g>
<!-- A2&#45;&gt;A5 -->
<g id="edge4" class="edge">
<title>A2&#45;&gt;A5</title>
<path fill="none" stroke="#000000" stroke-dasharray="5,2" d="M218.6569,-189.1618C272.7744,-203.4331 375.3096,-223.7374 458.9172,-201 501.4688,-189.4279 544.2993,-161.0409 570.6869,-141.1551"/>
<polygon fill="#000000" stroke="#000000" points="578.6553,-135.0295 573.4697,-144.6918 574.6912,-138.0768 570.7271,-141.1242 570.7271,-141.1242 570.7271,-141.1242 574.6912,-138.0768 567.9845,-137.5565 578.6553,-135.0295 578.6553,-135.0295"/>
<text text-anchor="middle" x="397.9698" y="-214" font-family="Helvetica,sans-Serif" font-size="10.00" fill="#000000">&lt;&lt;include&gt;&gt;</text>
</g>
<!-- A7 -->
<g id="node8" class="node">
<title>A7</title>
<ellipse fill="none" stroke="#000000" cx="397.9698" cy="-174" rx="60.8948" ry="18"/>
<text text-anchor="middle" x="397.9698" y="-171" font-family="Helvetica,sans-Serif" font-size="10.00" fill="#000000">上传教学视频</text>
</g>
<!-- A2&#45;&gt;A7 -->
<g id="edge9" class="edge">
<title>A2&#45;&gt;A7</title>
<path fill="none" stroke="#000000" stroke-dasharray="5,2" d="M238.4198,-176.9422C268.8328,-176.3814 306.1937,-175.6924 337.1148,-175.1222"/>
<polygon fill="#000000" stroke="#000000" points="228.3916,-177.1271 238.3068,-172.4434 233.3907,-177.0349 238.3899,-176.9427 238.3899,-176.9427 238.3899,-176.9427 233.3907,-177.0349 238.4729,-181.4419 228.3916,-177.1271 228.3916,-177.1271"/>
<text text-anchor="middle" x="285.3369" y="-179" font-family="Helvetica,sans-Serif" font-size="10.00" fill="#000000">&lt;&lt;extend&gt;&gt;</text>
</g>
<!-- A3&#45;&gt;A5 -->
<g id="edge5" class="edge">
<title>A3&#45;&gt;A5</title>
<path fill="none" stroke="#000000" stroke-dasharray="5,2" d="M448.664,-120C481.1263,-120 522.7966,-120 553.6724,-120"/>
<polygon fill="#000000" stroke="#000000" points="563.7005,-120 553.7006,-124.5001 558.7005,-120 553.7005,-120.0001 553.7005,-120.0001 553.7005,-120.0001 558.7005,-120 553.7005,-115.5001 563.7005,-120 563.7005,-120"/>
<text text-anchor="middle" x="511.4322" y="-123" font-family="Helvetica,sans-Serif" font-size="10.00" fill="#000000">&lt;&lt;include&gt;&gt;</text>
</g>
<!-- A4&#45;&gt;A3 -->
<g id="edge8" class="edge">
<title>A4&#45;&gt;A3</title>
<path fill="none" stroke="#000000" stroke-dasharray="5,2" d="M237.2234,-89.6163C273.3435,-96.4436 319.6357,-105.1936 353.2581,-111.5488"/>
<polygon fill="#000000" stroke="#000000" points="227.3243,-87.7452 237.9862,-85.1809 232.2374,-88.6739 237.1504,-89.6026 237.1504,-89.6026 237.1504,-89.6026 232.2374,-88.6739 236.3145,-94.0243 227.3243,-87.7452 227.3243,-87.7452"/>
<text text-anchor="middle" x="285.3369" y="-107" font-family="Helvetica,sans-Serif" font-size="10.00" fill="#000000">&lt;&lt;extend&gt;&gt;</text>
</g>
<!-- A4&#45;&gt;A5 -->
<g id="edge6" class="edge">
<title>A4&#45;&gt;A5</title>
<path fill="none" stroke="#000000" stroke-dasharray="5,2" d="M232.5743,-75.2693C288.587,-72.1655 380.5918,-69.8505 458.9172,-81 493.9096,-85.9811 532.5314,-97.4429 559.9799,-106.6593"/>
<polygon fill="#000000" stroke="#000000" points="569.5596,-109.9371 558.6413,-110.9573 564.8289,-108.3184 560.0981,-106.6997 560.0981,-106.6997 560.0981,-106.6997 564.8289,-108.3184 561.5549,-102.442 569.5596,-109.9371 569.5596,-109.9371"/>
<text text-anchor="middle" x="397.9698" y="-84" font-family="Helvetica,sans-Serif" font-size="10.00" fill="#000000">&lt;&lt;include&gt;&gt;</text>
</g>
<!-- A6 -->
<g id="node7" class="node">
<title>A6</title>
<ellipse fill="none" stroke="#000000" cx="397.9698" cy="-18" rx="54.6827" ry="18"/>
<text text-anchor="middle" x="397.9698" y="-15" font-family="Helvetica,sans-Serif" font-size="10.00" fill="#000000">修改教学心得</text>
</g>
<!-- A4&#45;&gt;A6 -->
<g id="edge7" class="edge">
<title>A4&#45;&gt;A6</title>
<path fill="none" stroke="#000000" stroke-dasharray="5,2" d="M221.0823,-60.1395C232.9865,-55.0346 246.1826,-49.8601 258.6514,-46 287.7571,-36.9894 321.204,-30.1561 348.0298,-25.4965"/>
<polygon fill="#000000" stroke="#000000" points="211.8509,-64.1922 219.1985,-56.0519 216.4292,-62.1823 221.0074,-60.1723 221.0074,-60.1723 221.0074,-60.1723 216.4292,-62.1823 222.8164,-64.2928 211.8509,-64.1922 211.8509,-64.1922"/>
<text text-anchor="middle" x="285.3369" y="-49" font-family="Helvetica,sans-Serif" font-size="10.00" fill="#000000">&lt;&lt;extend&gt;&gt;</text>
</g>
</g>
</svg>
