<?xml version="1.0" encoding="UTF-8" standalone="no"?>
<!DOCTYPE svg PUBLIC "-//W3C//DTD SVG 1.1//EN"
 "http://www.w3.org/Graphics/SVG/1.1/DTD/svg11.dtd">
<!-- Generated by graphviz version 2.40.1 (20161225.0304)
 -->
<!-- Title: G Pages: 1 -->
<svg width="469pt" height="202pt"
 viewBox="0.00 0.00 469.47 202.00" xmlns="http://www.w3.org/2000/svg" xmlns:xlink="http://www.w3.org/1999/xlink">
<g id="graph0" class="graph" transform="scale(1 1) rotate(0) translate(4 198)">
<title>G</title>
<polygon fill="#ffffff" stroke="transparent" points="-4,4 -4,-198 465.4673,-198 465.4673,4 -4,4"/>
<!-- A0 -->
<g id="node1" class="node">
<title>A0</title>
<polygon fill="#f5f5dc" stroke="#000000" points="67.9672,-36 4.6058,-36 4.6058,0 73.9672,0 73.9672,-30 67.9672,-36"/>
<polyline fill="none" stroke="#000000" points="67.9672,-36 67.9672,-30 "/>
<polyline fill="none" stroke="#000000" points="73.9672,-30 67.9672,-30 "/>
<text text-anchor="middle" x="39.2865" y="-15" font-family="Helvetica,sans-Serif" font-size="10.00" fill="#000000">figure 3.1</text>
</g>
<!-- A1 -->
<g id="node2" class="node">
<title>A1</title>
<g transform="translate(39.2865,-87)" style="fill:none;stroke:black;stroke-width:1px"><circle cx="0" cy="-20" r="7.5" />
                <line x1="0" y1="-12.5" x2="0" y2="5" />
                <line x1="-15" y1="-5" x2="15" y2="-5" />
                <line x1="0" y1="5" x2="-15" y2="17" />
                <line x1="0" y1="5" x2="15" y2="17" /></g>
<text text-anchor="middle" x="39.2865" y="-62" font-family="Helvetica,sans-Serif" font-size="10.00" fill="#000000">学生</text>
</g>
<!-- A2 -->
<g id="node3" class="node">
<title>A2</title>
<ellipse fill="none" stroke="#000000" cx="189.8583" cy="-118" rx="46.4416" ry="18"/>
<text text-anchor="middle" x="189.8583" y="-115" font-family="Helvetica,sans-Serif" font-size="10.00" fill="#000000">浏览课件</text>
</g>
<!-- A1&#45;&gt;A2 -->
<g id="edge1" class="edge">
<title>A1&#45;&gt;A2</title>
<path fill="none" stroke="#000000" d="M78.4544,-97.2836C99.7156,-101.2373 126.0134,-106.1275 147.7186,-110.1638"/>
</g>
<!-- A3 -->
<g id="node4" class="node">
<title>A3</title>
<ellipse fill="none" stroke="#000000" cx="189.8583" cy="-60" rx="60.0714" ry="18"/>
<text text-anchor="middle" x="189.8583" y="-57" font-family="Helvetica,sans-Serif" font-size="10.00" fill="#000000">观看教学视频</text>
</g>
<!-- A1&#45;&gt;A3 -->
<g id="edge2" class="edge">
<title>A1&#45;&gt;A3</title>
<path fill="none" stroke="#000000" d="M78.4544,-82.1962C97.1016,-78.4809 119.6229,-73.9937 139.5222,-70.029"/>
</g>
<!-- A4 -->
<g id="node5" class="node">
<title>A4</title>
<ellipse fill="none" stroke="#000000" cx="408.3205" cy="-60" rx="32.7567" ry="18"/>
<text text-anchor="middle" x="408.3205" y="-57" font-family="Helvetica,sans-Serif" font-size="10.00" fill="#000000">登录</text>
</g>
<!-- A2&#45;&gt;A4 -->
<g id="edge3" class="edge">
<title>A2&#45;&gt;A4</title>
<path fill="none" stroke="#000000" stroke-dasharray="5,2" d="M228.4121,-107.7643C267.8513,-97.2935 328.8334,-81.1032 368.6674,-70.5276"/>
<polygon fill="#000000" stroke="#000000" points="378.5609,-67.9009 370.0505,-74.8164 373.7283,-69.184 368.8958,-70.467 368.8958,-70.467 368.8958,-70.467 373.7283,-69.184 367.741,-66.1177 378.5609,-67.9009 378.5609,-67.9009"/>
<text text-anchor="middle" x="302.6586" y="-97" font-family="Helvetica,sans-Serif" font-size="10.00" fill="#000000">&lt;&lt;include&gt;&gt;</text>
</g>
<!-- A5 -->
<g id="node6" class="node">
<title>A5</title>
<ellipse fill="none" stroke="#000000" cx="408.3205" cy="-176" rx="53.2941" ry="18"/>
<text text-anchor="middle" x="408.3205" y="-173" font-family="Helvetica,sans-Serif" font-size="10.00" fill="#000000">下载课件</text>
</g>
<!-- A2&#45;&gt;A5 -->
<g id="edge5" class="edge">
<title>A2&#45;&gt;A5</title>
<path fill="none" stroke="#000000" stroke-dasharray="5,2" d="M238.3344,-130.87C276.7427,-141.0671 329.8474,-155.166 366.429,-164.8781"/>
<polygon fill="#000000" stroke="#000000" points="228.4121,-128.2357 239.232,-126.4525 233.2447,-129.5188 238.0773,-130.8018 238.0773,-130.8018 238.0773,-130.8018 233.2447,-129.5188 236.9225,-135.1512 228.4121,-128.2357 228.4121,-128.2357"/>
<text text-anchor="middle" x="302.6586" y="-156" font-family="Helvetica,sans-Serif" font-size="10.00" fill="#000000">&lt;&lt;extend&gt;&gt;</text>
</g>
<!-- A6 -->
<g id="node7" class="node">
<title>A6</title>
<ellipse fill="none" stroke="#000000" cx="408.3205" cy="-122" rx="44.599" ry="18"/>
<text text-anchor="middle" x="408.3205" y="-119" font-family="Helvetica,sans-Serif" font-size="10.00" fill="#000000">查找课件</text>
</g>
<!-- A2&#45;&gt;A6 -->
<g id="edge6" class="edge">
<title>A2&#45;&gt;A6</title>
<path fill="none" stroke="#000000" stroke-dasharray="5,2" d="M246.8926,-119.0443C283.2021,-119.7091 329.5715,-120.5581 363.2894,-121.1755"/>
<polygon fill="#000000" stroke="#000000" points="236.456,-118.8532 246.5367,-114.5371 241.4551,-118.9448 246.4543,-119.0364 246.4543,-119.0364 246.4543,-119.0364 241.4551,-118.9448 246.3719,-123.5356 236.456,-118.8532 236.456,-118.8532"/>
<text text-anchor="middle" x="302.6586" y="-123" font-family="Helvetica,sans-Serif" font-size="10.00" fill="#000000">&lt;&lt;extend&gt;&gt;</text>
</g>
<!-- A3&#45;&gt;A4 -->
<g id="edge4" class="edge">
<title>A3&#45;&gt;A4</title>
<path fill="none" stroke="#000000" stroke-dasharray="5,2" d="M247.623,-54.615C256.821,-53.9433 266.2373,-53.3649 275.1436,-53 299.5809,-51.9988 305.7403,-51.9079 330.1736,-53 341.7382,-53.5169 354.2367,-54.4621 365.7746,-55.4941"/>
<polygon fill="#000000" stroke="#000000" points="376.0462,-56.4566 365.67,-60.004 371.068,-55.9901 366.0898,-55.5236 366.0898,-55.5236 366.0898,-55.5236 371.068,-55.9901 366.5097,-51.0432 376.0462,-56.4566 376.0462,-56.4566"/>
<text text-anchor="middle" x="302.6586" y="-56" font-family="Helvetica,sans-Serif" font-size="10.00" fill="#000000">&lt;&lt;include&gt;&gt;</text>
</g>
</g>
</svg>
